<svg width="15" height="15" viewBox="0 0 15 15" fill="none" xmlns="http://www.w3.org/2000/svg">
<path d="M7.335 0C3.28388 0 0 3.28388 0 7.335C0 11.3861 3.28388 14.67 7.335 14.67C11.3861 14.67 14.67 11.3861 14.67 7.335C14.67 3.28388 11.3861 0 7.335 0ZM10.269 8.0685H8.0685V10.269C8.0685 10.6739 7.73989 11.0025 7.335 11.0025C6.93011 11.0025 6.6015 10.6739 6.6015 10.269V8.0685H4.401C3.99611 8.0685 3.6675 7.73989 3.6675 7.335C3.6675 6.93011 3.99611 6.6015 4.401 6.6015H6.6015V4.401C6.6015 3.99611 6.93011 3.6675 7.335 3.6675C7.73989 3.6675 8.0685 3.99611 8.0685 4.401V6.6015H10.269C10.6739 6.6015 11.0025 6.93011 11.0025 7.335C11.0025 7.73989 10.6739 8.0685 10.269 8.0685Z" fill="#99B2C6"/>
</svg>
