<?xml version="1.0" standalone="no"?>
<!DOCTYPE svg PUBLIC "-//W3C//DTD SVG 20010904//EN"
 "http://www.w3.org/TR/2001/REC-SVG-20010904/DTD/svg10.dtd">
<svg version="1.0" xmlns="http://www.w3.org/2000/svg"
 width="225.000000pt" height="225.000000pt" viewBox="0 0 225.000000 225.000000"
 preserveAspectRatio="xMidYMid meet">

<g transform="translate(0.000000,225.000000) scale(0.100000,-0.100000)"
fill="#ffffff" stroke="none">
<path d="M960 2065 c-318 -60 -571 -257 -705 -549 -59 -126 -80 -229 -79 -391
0 -174 23 -277 94 -420 215 -435 715 -640 1172 -480 434 152 702 606 623 1058
-67 383 -346 681 -725 772 -93 23 -288 28 -380 10z m386 -171 c273 -78 481
-292 555 -569 33 -123 31 -300 -5 -420 -187 -622 -980 -787 -1390 -288 -102
123 -159 262 -179 431 -27 239 59 472 238 649 117 115 279 197 445 223 89 14
237 3 336 -26z"/>
<path d="M1108 1782 c-16 -3 -18 -16 -18 -101 l0 -97 35 0 35 0 0 97 c0 102
-5 112 -52 101z"/>
<path d="M851 1729 c-14 -5 -21 -15 -18 -23 3 -8 20 -49 38 -91 30 -73 33 -76
58 -70 14 4 29 9 33 13 9 10 -64 182 -76 181 -6 0 -22 -5 -35 -10z"/>
<path d="M1318 1653 c-20 -48 -33 -91 -30 -95 4 -4 19 -9 33 -13 25 -6 28 -2
63 81 20 48 33 91 29 95 -4 4 -19 10 -33 14 -24 6 -28 1 -62 -82z"/>
<path d="M632 1577 l-22 -23 70 -69 69 -69 26 24 26 24 -68 68 c-37 37 -70 68
-73 68 -4 0 -16 -10 -28 -23z"/>
<path d="M1517 1532 l-68 -68 26 -24 26 -24 69 69 70 69 -22 23 c-12 13 -24
23 -28 23 -3 0 -36 -31 -73 -68z"/>
<path d="M1066 1395 c-17 -18 -23 -46 -31 -160 -3 -44 -13 -165 -22 -268 -15
-175 -15 -191 1 -223 16 -34 64 -64 102 -64 34 0 83 32 99 66 15 32 14 53 -10
331 -21 230 -30 302 -42 316 -20 21 -76 22 -97 2z"/>
<path d="M490 1370 c-5 -10 -10 -25 -10 -33 0 -12 65 -44 166 -84 10 -4 41 53
33 61 -4 4 -113 51 -156 67 -18 6 -25 4 -33 -11z"/>
<path d="M1660 1354 c-47 -20 -87 -38 -89 -40 -9 -9 23 -65 35 -60 161 62 182
78 152 119 -12 15 -21 13 -98 -19z"/>
<path d="M740 535 l0 -85 105 0 105 0 0 85 0 85 -105 0 -105 0 0 -85z"/>
<path d="M1020 535 l0 -85 105 0 105 0 0 85 0 85 -105 0 -105 0 0 -85z"/>
<path d="M1292 538 l3 -83 103 -3 102 -3 0 86 0 85 -105 0 -106 0 3 -82z"/>
</g>
</svg>
