<svg width="25" height="23" viewBox="0 0 25 23" fill="none" xmlns="http://www.w3.org/2000/svg">
<g filter="url(#filter0_d_8_1861)">
<path d="M8.07501 4.07501C7.62676 4.07501 7.26001 4.44176 7.26001 4.89001V9.78001C7.26001 10.6765 7.99351 11.41 8.89001 11.41H15.41C15.8583 11.41 16.225 11.0433 16.225 10.595C16.225 10.1468 15.8583 9.78001 15.41 9.78001H8.89001V4.89001C8.89001 4.44176 8.52326 4.07501 8.07501 4.07501Z" fill="#99B2C6"/>
<path d="M18.67 0H12.15C11.2535 0 10.52 0.7335 10.52 1.63V6.52C10.52 7.4165 11.2535 8.15 12.15 8.15H18.67C19.5665 8.15 20.3 7.4165 20.3 6.52V1.63C20.3 0.7335 19.5665 0 18.67 0ZM18.2625 6.52H12.5575C12.3293 6.52 12.15 6.3407 12.15 6.1125V3.26H18.67V6.1125C18.67 6.3407 18.4907 6.52 18.2625 6.52Z" fill="#99B2C6"/>
<path d="M4.815 7.33499C4.36675 7.33499 4 7.70174 4 8.14999V13.04C4 13.9365 4.7335 14.67 5.63 14.67H12.15C12.5982 14.67 12.965 14.3032 12.965 13.855C12.965 13.4067 12.5982 13.04 12.15 13.04H5.63V8.14999C5.63 7.70174 5.26325 7.33499 4.815 7.33499Z" fill="#99B2C6"/>
</g>
<defs>
<filter id="filter0_d_8_1861" x="0" y="0" width="24.3" height="22.67" filterUnits="userSpaceOnUse" color-interpolation-filters="sRGB">
<feFlood flood-opacity="0" result="BackgroundImageFix"/>
<feColorMatrix in="SourceAlpha" type="matrix" values="0 0 0 0 0 0 0 0 0 0 0 0 0 0 0 0 0 0 127 0" result="hardAlpha"/>
<feOffset dy="4"/>
<feGaussianBlur stdDeviation="2"/>
<feComposite in2="hardAlpha" operator="out"/>
<feColorMatrix type="matrix" values="0 0 0 0 0 0 0 0 0 0 0 0 0 0 0 0 0 0 0.25 0"/>
<feBlend mode="normal" in2="BackgroundImageFix" result="effect1_dropShadow_8_1861"/>
<feBlend mode="normal" in="SourceGraphic" in2="effect1_dropShadow_8_1861" result="shape"/>
</filter>
</defs>
</svg>
