<svg xmlns="http://www.w3.org/2000/svg" xmlns:xlink="http://www.w3.org/1999/xlink" width="492" zoomAndPan="magnify" viewBox="0 0 369 76.499998" height="102" preserveAspectRatio="xMidYMid meet" version="1.0"><defs><g/></defs><g fill="#ffffff" fill-opacity="1"><g transform="translate(11.517431, 56.122292)"><g><path d="M 24.828125 -39.414062 C 20.96875 -39.414062 17.394531 -37.941406 15.359375 -35.558594 L 15.359375 -38.292969 L 4.769531 -38.292969 L 4.769531 15.917969 L 16.128906 15.917969 L 16.128906 -2.035156 C 18.726562 0.28125 21.671875 1.121094 24.828125 1.121094 C 36.257812 1.121094 44.8125 -7.574219 44.8125 -19.144531 C 44.8125 -30.648438 36.257812 -39.414062 24.828125 -39.414062 Z M 33.453125 -19.144531 C 33.453125 -16.199219 32.050781 -13.535156 29.527344 -11.78125 C 27.984375 -10.660156 26.230469 -10.097656 24.335938 -10.097656 C 20.898438 -10.097656 17.671875 -12.273438 16.128906 -15.570312 L 16.128906 -22.722656 C 17.671875 -26.019531 20.828125 -28.121094 24.335938 -28.121094 C 29.246094 -28.121094 33.453125 -23.914062 33.453125 -19.144531 Z M 33.453125 -19.144531 "/></g></g></g><g fill="#ffffff" fill-opacity="1"><g transform="translate(58.991134, 56.122292)"><g><path d="M 25.105469 -39.273438 C 21.460938 -39.273438 17.882812 -38.011719 15.21875 -35.488281 L 15.21875 -38.292969 L 4.628906 -38.292969 L 4.628906 0 L 15.988281 0 L 15.988281 -20.269531 C 15.988281 -24.757812 18.933594 -27.914062 23.214844 -27.914062 C 24.96875 -27.914062 26.789062 -27.5625 28.191406 -26.648438 L 32.332031 -37.660156 C 31 -38.363281 28.542969 -39.273438 25.105469 -39.273438 Z M 25.105469 -39.273438 "/></g></g></g><g fill="#ffffff" fill-opacity="1"><g transform="translate(90.546772, 56.122292)"><g><path d="M 41.449219 -21.320312 C 41.449219 -24.757812 40.464844 -27.984375 38.152344 -31.347656 C 34.644531 -36.46875 28.542969 -39.625 22.230469 -39.625 C 11.429688 -39.625 2.59375 -30.4375 2.59375 -19.144531 C 2.59375 -7.855469 11.222656 1.402344 22.230469 1.402344 C 30.648438 1.402344 36.539062 -2.664062 39.625 -6.59375 C 38.710938 -7.574219 34.015625 -12.273438 32.679688 -13.535156 C 30.71875 -11.429688 27.210938 -8.765625 22.300781 -8.976562 C 18.796875 -9.117188 14.9375 -11.292969 14.308594 -15.078125 L 34.503906 -15.078125 C 38.640625 -15.078125 41.449219 -17.742188 41.449219 -21.320312 Z M 21.882812 -29.59375 C 26.089844 -29.59375 29.316406 -26.578125 30.015625 -23.703125 L 14.308594 -23.703125 C 14.9375 -27.070312 18.585938 -29.59375 21.882812 -29.59375 Z M 21.882812 -29.59375 "/></g></g></g><g fill="#ffffff" fill-opacity="1"><g transform="translate(135.005165, 56.122292)"><g><path d="M 25.105469 -39.273438 C 21.460938 -39.273438 17.882812 -38.011719 15.21875 -35.488281 L 15.21875 -38.292969 L 4.628906 -38.292969 L 4.628906 0 L 15.988281 0 L 15.988281 -20.269531 C 15.988281 -24.757812 18.933594 -27.914062 23.214844 -27.914062 C 24.96875 -27.914062 26.789062 -27.5625 28.191406 -26.648438 L 32.332031 -37.660156 C 31 -38.363281 28.542969 -39.273438 25.105469 -39.273438 Z M 25.105469 -39.273438 "/></g></g></g><g fill="#ffffff" fill-opacity="1"><g transform="translate(166.560803, 56.122292)"><g><path d="M 31.417969 -38.292969 L 31.417969 -35.625 C 29.105469 -38.082031 25.527344 -39.34375 22.019531 -39.34375 C 10.941406 -39.34375 1.894531 -30.296875 1.894531 -19.074219 C 1.894531 -7.925781 10.941406 1.191406 22.019531 1.191406 C 25.527344 1.191406 29.527344 -0.492188 31.417969 -2.59375 L 31.417969 0 L 42.007812 0 L 42.007812 -38.292969 Z M 30.578125 -22.582031 L 30.578125 -15.570312 C 29.105469 -12.203125 25.878906 -10.097656 22.371094 -10.097656 C 17.253906 -10.097656 13.253906 -14.308594 13.253906 -19.074219 C 13.253906 -23.984375 17.671875 -28.121094 22.371094 -28.121094 C 25.878906 -28.121094 29.105469 -25.949219 30.578125 -22.582031 Z M 30.578125 -22.582031 "/></g></g></g><g fill="#ffffff" fill-opacity="1"><g transform="translate(213.122889, 56.122292)"><g><path d="M 37.941406 -9.820312 C 36.890625 -9.820312 36.046875 -10.660156 35.765625 -11.011719 C 33.171875 -14.238281 29.875 -18.09375 26.929688 -22.019531 L 42.78125 -38.292969 L 27.632812 -38.292969 L 16.269531 -26.648438 L 16.269531 -54.210938 L 4.910156 -54.210938 L 4.910156 0 L 16.269531 0 L 16.269531 -12.273438 L 18.726562 -14.445312 C 21.742188 -10.519531 24.6875 -6.804688 27.070312 -3.855469 C 28.894531 -1.472656 31.136719 0.632812 34.855469 0.632812 C 37.871094 0.632812 41.167969 -1.121094 42.570312 -2.59375 C 42.289062 -3.296875 40.117188 -10.449219 40.117188 -10.449219 C 40.117188 -10.449219 39.132812 -9.820312 37.941406 -9.820312 Z M 37.941406 -9.820312 "/></g></g></g><g fill="#ffffff" fill-opacity="1"><g transform="translate(254.916581, 56.122292)"><g><path d="M 11.992188 -13.113281 C 7.996094 -13.113281 4.839844 -9.957031 4.839844 -5.960938 C 4.839844 -2.035156 7.996094 1.191406 11.992188 1.191406 C 15.917969 1.191406 19.144531 -2.035156 19.144531 -5.960938 C 19.144531 -9.957031 15.917969 -13.113281 11.992188 -13.113281 Z M 11.992188 -13.113281 "/></g></g></g><g fill="#8c52ff" fill-opacity="1"><g transform="translate(278.681401, 56.122292)"><g><path d="M 31.417969 -38.292969 L 31.417969 -35.625 C 29.105469 -38.082031 25.527344 -39.34375 22.019531 -39.34375 C 10.941406 -39.34375 1.894531 -30.296875 1.894531 -19.074219 C 1.894531 -7.925781 10.941406 1.191406 22.019531 1.191406 C 25.527344 1.191406 29.527344 -0.492188 31.417969 -2.59375 L 31.417969 0 L 42.007812 0 L 42.007812 -38.292969 Z M 30.578125 -22.582031 L 30.578125 -15.570312 C 29.105469 -12.203125 25.878906 -10.097656 22.371094 -10.097656 C 17.253906 -10.097656 13.253906 -14.308594 13.253906 -19.074219 C 13.253906 -23.984375 17.671875 -28.121094 22.371094 -28.121094 C 25.878906 -28.121094 29.105469 -25.949219 30.578125 -22.582031 Z M 30.578125 -22.582031 "/></g></g></g><g fill="#8c52ff" fill-opacity="1"><g transform="translate(325.243499, 56.122292)"><g><path d="M 10.519531 -42.007812 C 14.378906 -42.007812 17.460938 -45.023438 17.460938 -48.742188 C 17.460938 -52.457031 14.378906 -55.472656 10.519531 -55.472656 C 6.664062 -55.472656 3.578125 -52.457031 3.578125 -48.742188 C 3.578125 -45.023438 6.664062 -42.007812 10.519531 -42.007812 Z M 4.769531 0 L 16.128906 0 L 16.128906 -38.292969 L 4.769531 -38.292969 Z M 4.769531 0 "/></g></g></g><g fill="#ffffff" fill-opacity="1"><g transform="translate(345.929367, 56.122292)"><g/></g></g><g fill="#ffffff" fill-opacity="1"><g transform="translate(363.320035, 56.122292)"><g/></g></g></svg>